<svg width="48" height="47" viewBox="0 0 48 47" fill="none" xmlns="http://www.w3.org/2000/svg">
<path d="M23.9488 0.615356C20.8907 0.615356 17.8624 1.20735 15.0371 2.35733C12.2117 3.50745 9.64464 5.19306 7.4821 7.31806C5.3197 9.44319 3.60442 11.9659 2.43406 14.7424C1.26383 17.5188 0.661423 20.4948 0.661423 23.5C0.661423 26.5052 1.26383 29.4811 2.43406 32.2576C3.60442 35.0341 5.3197 37.5567 7.4821 39.6819C9.64464 41.8069 12.2117 43.4925 15.0371 44.6426C17.8624 45.7926 20.8907 46.3846 23.9488 46.3846V34.9423C22.4197 34.9423 20.9056 34.6463 19.4929 34.0712C18.0803 33.4962 16.7967 32.6534 15.7155 31.5909C14.6343 30.5284 13.7766 29.267 13.1915 27.8788C12.6063 26.4905 12.3051 25.0026 12.3051 23.5C12.3051 21.9973 12.6063 20.5094 13.1915 19.1212C13.7766 17.7329 14.6343 16.4715 15.7155 15.409C16.7967 14.3465 18.0803 13.5037 19.4929 12.9287C20.9056 12.3536 22.4197 12.0577 23.9488 12.0577V0.615356Z" fill="#21A038"/>
<path d="M23.9489 31.1281C28.2361 31.1281 31.7114 27.713 31.7114 23.5C31.7114 19.287 28.2361 15.8718 23.9489 15.8718C19.6618 15.8718 16.1865 19.287 16.1865 23.5C16.1865 27.713 19.6618 31.1281 23.9489 31.1281Z" fill="#21A038"/>
<path d="M0.661423 23.5C0.661423 26.5052 1.26383 29.4811 2.43406 32.2576C3.60442 35.0341 5.3197 37.5568 7.4821 39.6819C9.64464 41.8069 12.2117 43.4925 15.0371 44.6426C17.8624 45.7926 20.8907 46.3846 23.9488 46.3846C27.0069 46.3846 30.0352 45.7926 32.8606 44.6426C35.6859 43.4925 38.253 41.8069 40.4155 39.6819C42.5779 37.5568 44.2932 35.0341 45.4636 32.2576C46.6338 29.4811 47.2362 26.5052 47.2362 23.5H35.5925C35.5925 25.0027 35.2914 26.4906 34.7061 27.8788C34.121 29.2671 33.2634 30.5285 32.1822 31.591C31.101 32.6535 29.8174 33.4963 28.4047 34.0713C26.992 34.6464 25.4779 34.9423 23.9488 34.9423C22.4197 34.9423 20.9056 34.6464 19.4929 34.0713C18.0803 33.4963 16.7967 32.6535 15.7155 31.591C14.6343 30.5285 13.7766 29.2671 13.1915 27.8788C12.6063 26.4906 12.3051 25.0027 12.3051 23.5H0.661423Z" fill="#21A038"/>
<path d="M31.7114 23.5C31.7114 21.4769 30.8935 19.5366 29.4379 18.106C27.9821 16.6754 26.0077 15.8717 23.949 15.8717C21.8902 15.8717 19.9158 16.6754 18.4601 18.106C17.0043 19.5366 16.1864 21.4769 16.1864 23.5H23.949H31.7114Z" fill="#21A038"/>
</svg>
